<svg width="382" height="88" viewBox="0 0 382 88" xmlns="http://www.w3.org/2000/svg"><title>slice</title><g fill="none" fill-rule="evenodd"><path d="M145.827 32.046c0-12.42-10.224-22.816-22.73-22.816-12.781 0-22.732 10.304-22.732 22.908V77.31h6.664V48.606c4.017 3.588 9.586 6.44 16.067 6.44 12.507 0 22.731-10.304 22.731-23zm-7.394.092c0 8.556-6.847 15.456-15.337 15.456-8.49 0-15.428-6.9-15.428-15.456s6.938-15.548 15.428-15.548c8.49 0 15.337 6.992 15.337 15.548zm52.116 22c0-12.696-10.134-22.908-22.732-22.908-12.598 0-22.73 10.212-22.73 22.908 0 12.604 10.132 22.908 22.73 22.908s22.732-10.304 22.732-22.908zm-7.395 0c0 8.556-6.847 15.456-15.337 15.456-8.49 0-15.427-6.9-15.427-15.456s6.938-15.548 15.427-15.548c8.49 0 15.337 6.992 15.337 15.548zm37.707 8.556c.183-4.784-3.469-9.936-8.764-11.5l-5.66-1.656c-2.921-.92-5.477-2.668-5.477-5.796-.091-3.772 3.469-5.428 7.942-5.52 4.656-.092 10.681 3.036 10.681 3.128v-7.636c-.456-.276-4.747-2.392-10.864-2.484-7.485 0-14.332 3.68-14.788 12.512-.274 5.704 3.012 10.304 8.398 12.052l6.208 1.932c3.104 1.012 4.93 2.668 5.112 5.336.365 4.14-3.286 6.9-8.49 6.9-5.02-.092-9.768-2.208-10.316-2.668v7.636c.64.276 6.3 2.576 10.499 2.392 11.411-.368 15.428-7.268 15.519-14.628zm21.503 13.064v-6.716h-2.556c-1.46 0-2.191.184-3.743-.828-1.37-.92-2.282-2.024-2.282-3.68V39.602h8.49v-7.268h-8.582v-18.4h-7.211v48.3c0 5.06 1.186 9.292 5.386 12.052 3.377 2.3 9.22 1.932 10.498 1.472z" fill="#008AC4"/><path d="M256.8 75.942V8.506h-7.212v67.436h7.212zm50.26-25.024c-1.826-11.684-11.138-19.688-22.458-19.688-12.233 0-22.822 10.304-22.822 22.908 0 12.236 10.133 22.908 22.822 22.908 10.681 0 18.897-6.992 21.818-16.284h-7.85c-2.557 5.244-7.943 8.832-13.968 8.832-7.03.184-13.42-4.968-14.88-11.684h30.582c2.191 0 4.473-.828 5.386-1.84 1.187-1.564 1.643-3.312 1.37-5.152zm-7.395 0h-30.126c1.644-7.268 7.577-12.328 15.063-12.328 7.395 0 13.42 5.06 15.063 12.328zm56.376 24.932V54.138c0-12.604-9.951-22.908-22.732-22.908-12.324 0-22.73 10.212-22.73 22.908 0 12.788 10.315 22.908 22.73 22.908 6.39 0 13.42-3.22 16.067-6.992v5.796h6.665zm-7.395-21.712c0 8.556-6.847 15.456-15.337 15.456-8.49 0-15.427-6.9-15.427-15.456s6.938-15.548 15.427-15.548c8.49 0 15.337 6.992 15.337 15.548zm28.898-15.18v-7.36h-8.673V19.914c0-1.564.456-2.76 1.643-3.772 1.096-.828 2.009-1.012 3.378-1.012h3.652V8.414h-4.839c-2.556 0-5.842 1.104-7.394 2.852-2.739 3.036-3.378 5.98-3.378 10.12v54.556h6.938V38.958h8.673z" fill="#B5CD42"/><path d="M32.688 69.892v14.562h23.056c16.298 0 29.632-13.335 29.632-29.633V2.641H33.197c-16.298 0-29.633 13.334-29.633 29.634v52.18h14.562v-52.18c0-8.262 6.81-15.073 15.071-15.073h37.617v37.62c0 8.26-6.809 15.07-15.07 15.07" fill="#008AC4"/><path d="M32.688 32.275V55.33h23.056c.221 0 .509-.287.509-.509V31.764H33.197c-.222 0-.509.287-.509.51" fill="#B5CD42"/></g></svg>